<?xml version="1.0" encoding="iso-8859-1"?>
<!-- Generator: Adobe Illustrator 22.0.0, SVG Export Plug-In . SVG Version: 6.00 Build 0)  -->
<svg xmlns="http://www.w3.org/2000/svg" xmlns:xlink="http://www.w3.org/1999/xlink" version="1.1" id="Capa_1" x="0px" y="0px" viewBox="0 0 512 512" style="enable-background:new 0 0 512 512;" xml:space="preserve" width="512" height="512">
<g>
	<path style="fill:#012631;" d="M381,459.502c-16.542,0-30-13.458-30-30v-47H226v92h155V459.502z"/>
	<path style="fill:#014859;" d="M161,382.502v47c0,16.542-13.458,30-30,30v15h125v-92H161z"/>
	<polygon points="196,277.502 256,412.502 512,412.502 512,337.502  "/>
	<polygon style="fill:#012631;" points="0,337.502 0,412.502 256,412.502 256,277.502  "/>
	<polygon style="fill:#016A82;" points="512,337.502 512,22.498 256,22.498 196,180 256,337.502  "/>
	<rect y="22.498" style="fill:#008BAA;" width="256" height="315.004"/>
	<polygon points="466,459.502 256,459.502 236,474.502 256,489.502 466,489.502  "/>
	<rect x="46" y="459.502" style="fill:#012631;" width="210" height="30"/>
	<polygon style="fill:#012631;" points="136,292.502 166,292.502 166,242.502 136,262.502  "/>
	<polygon points="346,242.502 346,292.502 376,292.502 376,262.502  "/>
	<polygon style="fill:#FFAB37;" points="256,262.502 376,262.502 376,187.502 226,157.502  "/>
	<polygon style="fill:#FFCD37;" points="136,187.502 136,262.502 256,262.502 256,157.502  "/>
	<polygon style="fill:#AAEFFD;" points="256,82.498 226,135 256,187.502 376,187.502 341.812,82.498  "/>
	<polygon style="fill:#FFFFFF;" points="256,82.498 170.188,82.498 136,187.502 256,187.502  "/>
</g>















</svg>
