<svg height="480pt" viewBox="0 0 480.82839 480" width="480pt" xmlns="http://www.w3.org/2000/svg"><path d="m472.417969 232.414062v-64l-176-88h-112l-176 152zm0 0" fill="#a8dba8"/><path d="m472.417969 168.414062-176-88h-40l120 152h96zm0 0" fill="#cff09e"/><path d="m24.417969 232.414062h432c8.835937 0 16 7.164063 16 16v216c0 8.835938-7.164063 16-16 16h-432c-8.835938 0-16-7.164062-16-16v-216c0-8.835937 7.164062-16 16-16zm0 0" fill="#cff09e"/><path d="m28.042969 232.414062h-3.625c-8.835938 0-16 7.164063-16 16v216c0 8.835938 7.164062 16 16 16h352.3125c-172.71875-36.152343-306.320313-130.359374-348.6875-248zm0 0" fill="#a8dba8"/><path d="m128.417969 232.414062c-61.855469 0-112 50.144532-112 112 0 61.855469 50.144531 112 112 112s112-50.144531 112-112c0-61.855468-50.144531-112-112-112zm-79.953125 113.007813 55.953125 6.992187 7.015625 70.152344c-36.386719-7.925781-62.492188-39.910156-62.96875-77.144531zm63.953125-33.007813h-57.230469c12.683594-29.148437 41.441406-48 73.230469-48 31.789062 0 60.550781 18.851563 73.234375 48zm32.984375 110.152344 7.015625-70.152344 55.953125-6.992187c-.476563 37.234375-26.582032 69.21875-62.96875 77.144531zm0 0" fill="#79bd9a"/><path d="m8.417969 264.414062 232-24 232 24v-32l-232-24-232 24zm0 0" fill="#a8dba8"/><path d="m8.417969 296.414062 232-24 232 24v-32l-232-24-232 24zm0 0" fill="#79bd9a"/><path d="m432.417969 408.414062h16v8c0 4.417969-3.582031 8-8 8s-8-3.582031-8-8zm0 0" fill="#79bd9a"/><path d="m432.417969 448.414062h16v8c0 4.417969-3.582031 8-8 8s-8-3.582031-8-8zm0 0" fill="#79bd9a"/><path d="m280.417969 432.414062h48v16c0 13.253907-10.746094 24-24 24-13.253907 0-24-10.746093-24-24zm0 0" fill="#79bd9a"/><path d="m352.417969 432.414062h48v16c0 13.253907-10.746094 24-24 24-13.253907 0-24-10.746093-24-24zm0 0" fill="#79bd9a"/><path d="m272.417969 336.414062h176v48c0 4.417969-3.582031 8-8 8h-160c-4.417969 0-8-3.582031-8-8zm0 0" fill="#79bd9a"/><path d="m312.417969 312.414062h96v64h-96zm0 0" fill="#a8dba8"/><path d="m379.738281 365.78125c-24.777343-9.578125-45.652343-27.148438-59.320312-49.925781v60.558593h96v-.855468c-12.617188-1.554688-24.960938-4.84375-36.679688-9.777344zm0 0" fill="#79bd9a"/><path d="m280.417969 312.414062h32v32h-32zm0 0" fill="#a8dba8"/><path d="m280.417969 344.414062h32v32h-32zm0 0" fill="#79bd9a"/><path d="m408.417969 312.414062h32v32h-32zm0 0" fill="#79bd9a"/><path d="m408.417969 344.414062h32v32h-32zm0 0" fill="#a8dba8"/><path d="m320.417969 432.414062c0 8.835938-7.164063 16-16 16-8.835938 0-16-7.164062-16-16 0-8.835937 7.164062-16 16-16 8.835937 0 16 7.164063 16 16zm0 0" fill="#79bd9a"/><path d="m392.417969 432.414062c0 8.835938-7.164063 16-16 16-8.835938 0-16-7.164062-16-16 0-8.835937 7.164062-16 16-16 8.835937 0 16 7.164063 16 16zm0 0" fill="#79bd9a"/><path d="m8.417969 80.414062h464v-56l-232-16-232 16zm0 0" fill="#cff09e"/><path d="m260.417969 32.414062c71.570312-.609374 142.890625 8.515626 212 27.128907v-35.128907l-232-16-232 16v48.214844c66.28125-24.949218 154.761719-40.214844 252-40.214844zm0 0" fill="#a8dba8"/><path d="m128.417969 200.414062c-61.855469 0-112 50.144532-112 112 0 61.855469 50.144531 112 112 112s112-50.144531 112-112c0-61.855468-50.144531-112-112-112zm0 192c-44.183594 0-80-35.816406-80-80 0-44.183593 35.816406-80 80-80 44.183593 0 80 35.816407 80 80 0 44.183594-35.816407 80-80 80zm0 0" fill="#cff09e"/><path d="m112.417969 280.414062h-57.296875c-4.421875 10.089844-6.703125 20.984376-6.703125 32 0 .34375.046875.671876.046875 1.007813l55.953125 6.992187 7.015625 70.152344c11.1875 2.464844 22.78125 2.464844 33.96875 0l7.015625-70.152344 55.953125-6.992187c0-.335937.046875-.664063.046875-1.007813.003906-11.015624-2.28125-21.910156-6.703125-32zm0 0" fill="#a8dba8"/><path d="m201.714844 280.414062h-34.542969c8.011719 10.664063 13.417969 23.054688 15.78125 36.183594l25.417969-3.199218c0-.335938.046875-.664063.046875-1.007813 0-11.007813-2.285157-21.894531-6.703125-31.976563zm0 0" fill="#79bd9a"/><path d="m112.867188 280.414062h-57.746094c-4.421875 10.089844-6.703125 20.984376-6.703125 32 0 .34375.046875.671876.046875 1.007813l55.953125 6.992187 7.015625 70.152344c10.429687 2.332032 21.230468 2.457032 31.710937.375-18.515625-34-28.882812-71.835937-30.277343-110.527344zm0 0" fill="#79bd9a"/><path d="m136.003906 392.03125c-2.496094.238281-5.027344.382812-7.585937.382812-27.785157.046876-53.597657-14.351562-68.160157-38.019531-14.5625-23.664062-15.78125-53.195312-3.214843-77.980469-.335938-4-.625-8-.625-12-.011719-14.539062 2.238281-28.992187 6.664062-42.839843-49.113281 35.1875-61.421875 103.011719-27.804687 153.214843 33.621094 50.199219 101.023437 64.644532 152.261718 32.625-17.964843-1.976562-35.425781-7.1875-51.535156-15.382812zm0 0" fill="#a8dba8"/><g fill="#3b8686"><path d="m47.730469 277.398438c-4.824219 11.042968-7.316407 22.964843-7.3125 35.015624l.046875 1.007813c.628906 48.109375 39.796875 86.78125 87.910156 86.800781 48.113281.023438 87.3125-38.621094 87.980469-86.726562v-.042969c0-.183594.046875-.878906.046875-1.070313 0-12.050781-2.488282-23.972656-7.3125-35.015624 0-.089844-.078125-.160157-.113282-.242188-13.984374-32.035156-45.617187-52.742188-80.574218-52.742188-34.957032 0-66.589844 20.707032-80.574219 52.742188-.019531.089844-.066406.183594-.097656.273438zm9.488281 45.183593 39.871094 4.984375 5.191406 51.863282c-24.152344-9.460938-41.363281-31.171876-45.0625-56.847657zm61.601562 61.113281-6.402343-64.082031c-.371094-3.714843-3.261719-6.679687-6.96875-7.144531l-48.6875-6.078125c.507812-6.132813 1.800781-12.175781 3.855469-17.976563h135.601562c2.070312 5.800782 3.378906 11.847657 3.894531 17.984376l-48.6875 6.078124c-3.703125.464844-6.597656 3.429688-6.96875 7.144532l-6.398437 64.074218c-6.386719.957032-12.878906.957032-19.265625 0zm35.773438-4.265624 5.183594-51.863282 39.875-4.984375c-3.710938 25.679688-20.925782 47.390625-45.089844 56.847657zm-26.175781-139.015626c24.03125.015626 46.472656 12.019532 59.824219 32h-119.648438c13.351562-19.980468 35.792969-31.984374 59.824219-32zm0 0"/><path d="m440.417969 304.414062h-160c-4.417969 0-8 3.582032-8 8v64c0 4.417969 3.582031 8 8 8h160c4.417969 0 8-3.582031 8-8v-64c0-4.417968-3.582031-8-8-8zm-8 32h-16v-16h16zm-144-16h16v16h-16zm0 32h16v16h-16zm32 16v-48h32v16h-8c-4.417969 0-8 3.582032-8 8v24zm32-16h8c4.417969 0 8-3.582031 8-8v-24h32v48h-48zm80 16h-16v-16h16zm0 0"/><path d="m304.417969 408.414062c-13.253907 0-24 10.746094-24 24 0 13.253907 10.746093 24 24 24 13.253906 0 24-10.746093 24-24 0-13.253906-10.746094-24-24-24zm0 32c-4.417969 0-8-3.582031-8-8 0-4.417968 3.582031-8 8-8s8 3.582032 8 8c0 4.417969-3.582031 8-8 8zm0 0"/><path d="m376.417969 408.414062c-13.253907 0-24 10.746094-24 24 0 13.253907 10.746093 24 24 24 13.253906 0 24-10.746093 24-24 0-13.253906-10.746094-24-24-24zm0 32c-4.417969 0-8-3.582031-8-8 0-4.417968 3.582031-8 8-8s8 3.582032 8 8c0 4.417969-3.582031 8-8 8zm0 0"/><path d="m472.417969 176.414062c3.710937 0 6.929687-2.550781 7.785156-6.160156.855469-3.605468-.886719-7.328125-4.199219-8.992187l-145.699218-72.847657h142.113281c4.417969 0 8-3.582031 8-8 0-4.417968-3.582031-8-8-8h-456c-4.417969 0-8 3.582032-8 8 0 4.417969 3.582031 8 8 8h146.503906l-159.726563 137.945313c-2.53125 2.183594-3.4375 5.710937-2.273437 8.84375 1.164063 3.128906 4.15625 5.210937 7.496094 5.210937h.800781l25.398438-2.625c-4.289063 5.339844-8.117188 11.035157-11.4375 17.023438l-15.578126 1.601562c-4.417968.226563-7.816406 3.988282-7.5898432 8.40625.2226562 4.421876 3.9882812 7.820313 8.4062502 7.59375.273437 0 .550781 0 .800781-.039062l6.398438-.664062c-16.171876 44.984374-4.085938 95.273437 30.757812 128 34.847656 32.722656 85.796875 41.632812 129.679688 22.671874 43.878906-18.957031 72.3125-62.167968 72.363281-109.96875-.007813-22.242187-6.246094-44.039062-18.007813-62.917968l10.007813-1.042969 231.199219 23.921875c.273437 0 .554687.039062.800781.039062 4.261719 0 7.777343-3.339843 7.992187-7.597656.210938-4.257812-2.949218-7.9375-7.191406-8.363281l-232-24c-.546875-.046875-1.09375-.046875-1.640625 0l-20.070313 2.074219c-4.429687-5.199219-9.285156-10.015625-14.519531-14.402344l35.429688-3.671875 231.199219 23.960937h.800781c4.417969.222657 8.179687-3.179687 8.402343-7.601562.21875-4.417969-3.183593-8.175781-7.601562-8.398438l-232-24c-.546875-.046874-1.09375-.046874-1.640625 0l-55.519531 5.742188c-42.707032-22.472656-94.738282-17.074219-131.921875 13.691406l-19.199219 1.992188 154.457031-133.425782h107.136719l174.3125 87.199219c1.113281.539063 2.335938.816407 3.574219.800781zm-240 136c0 57.4375-46.5625 104-104 104s-104-46.5625-104-104 46.5625-104 104-104c57.410156.066407 103.933593 46.589844 104 104zm0 0"/><path d="m267.507812 98.101562c-3.472656 2.710938-4.097656 7.71875-1.402343 11.199219l27.015625 34.738281c1.519531 1.949219 3.851562 3.089844 6.320312 3.085938 3.054688-.003906 5.839844-1.746094 7.179688-4.488281 1.339844-2.746094 1-6.011719-.875-8.421875l-27.015625-34.738282c-2.71875-3.476562-7.742188-4.089843-11.222657-1.375zm0 0"/><path d="m312.5625 156.03125c-3.46875 2.710938-4.09375 7.714844-1.398438 11.199219l22.167969 28.503906c1.730469 2.328125 4.582031 3.535156 7.457031 3.160156 2.875-.378906 5.324219-2.28125 6.394532-4.976562 1.070312-2.695313.601562-5.757813-1.230469-8.007813l-22.167969-28.511718c-2.722656-3.476563-7.746094-4.085938-11.222656-1.367188zm0 0"/><path d="m8.960938 32.414062 231.457031-16 231.457031 16h.542969c4.417969.148438 8.121093-3.3125 8.269531-7.730468.148438-4.417969-3.316406-8.121094-7.734375-8.269532l-232-16c-.351563 0-.726563 0-1.085937 0l-232 16c-2.125.140626-4.105469 1.125-5.5 2.726563-1.398438 1.605469-2.101563 3.703125-1.949219 5.824219.378906 4.378906 4.15625 7.671875 8.542969 7.449218zm0 0"/><path d="m448.417969 408.414062c0 4.417969-3.582031 8-8 8s-8-3.582031-8-8c0-4.417968 3.582031-8 8-8s8 3.582032 8 8zm0 0"/><path d="m448.417969 448.414062c0 4.417969-3.582031 8-8 8s-8-3.582031-8-8c0-4.417968 3.582031-8 8-8s8 3.582032 8 8zm0 0"/></g></svg>