<svg height="512pt" viewBox="-67 0 512 512" width="512pt" xmlns="http://www.w3.org/2000/svg"><path d="m189 0c-104.210938 0-189 85.039062-189 189.558594 0 52.769531 27.320312 120.542968 81.199219 201.453125 40.109375 60.21875 80.492187 105.789062 84.972656 110.777343 5.796875 6.492188 14.128906 10.210938 22.828125 10.210938s17.03125-3.71875 22.828125-10.210938c4.480469-4.988281 44.863281-50.558593 84.972656-110.777343 53.878907-80.910157 81.199219-148.683594 81.199219-201.453125 0-104.519532-84.789062-189.558594-189-189.558594zm0 327.570312c-78.171875 0-141.761719-63.589843-141.761719-141.761718 0-78.160156 63.589844-141.757813 141.761719-141.757813s141.761719 63.597657 141.761719 141.757813c0 78.171875-63.589844 141.761718-141.761719 141.761718zm0 0" fill="#d7f3ff"/><path d="m204.429688 128.960938h-47.71875c-.089844 0-.191407.019531-.28125.019531-.101563 0-.191407-.019531-.289063-.019531-8.28125 0-15 6.71875-15 15v87.699218c0 8.289063 6.71875 15 15 15 8.289063 0 15-6.710937 15-15v-21.851562h33.289063c22.289062 0 40.429687-18.128906 40.429687-40.417969s-18.140625-40.429687-40.429687-40.429687zm0 50.847656h-33.289063v-20.847656h33.289063c5.75 0 10.429687 4.679687 10.429687 10.429687s-4.679687 10.417969-10.429687 10.417969zm0 0" fill="#006099"/><path d="m378 189.558594c0 52.769531-27.320312 120.542968-81.199219 201.453125-40.109375 60.21875-80.492187 105.789062-84.972656 110.777343-5.796875 6.492188-14.128906 10.210938-22.828125 10.210938v-184.429688c78.171875 0 141.761719-63.589843 141.761719-141.761718 0-78.160156-63.589844-141.757813-141.761719-141.757813v-44.050781c104.210938 0 189 85.039062 189 189.558594zm0 0" fill="#a2e3ff"/><path d="m244.859375 169.390625c0 22.289063-18.140625 40.417969-40.429687 40.417969h-15.429688v-30h15.429688c5.75 0 10.429687-4.667969 10.429687-10.417969s-4.679687-10.429687-10.429687-10.429687h-15.429688v-30h15.429688c22.289062 0 40.429687 18.140624 40.429687 40.429687zm0 0" fill="#00213b"/></svg>